# xmcd CD database file
#
# Track frame offsets:
#	182
#	71877
#	86857
#	126982
#	178807
#	197667
#
# Disc length: 3171 seconds
#
# Revision: 2
# Processed by: cddbd v1.4PL0 Copyright (c) Steve Scherf et al.
# Submitted via: CDex 1.50beta10
#
DISCID=5b0c6106
DTITLE=Astor Piazzolla - Libertango vol2
DYEAR=1997
DGENRE=Tango
TTITLE0=Tristezas de un Doble A
TTITLE1=Escualo
TTITLE2=Mumuki
TTITLE3=Contrabajismo
TTITLE4=Libertango
TTITLE5=Chin Chin
EXTD=YEAR: 1997
EXTT0=
EXTT1=
EXTT2=
EXTT3=
EXTT4=
EXTT5=
PLAYORDER=
